<svg width="1366" height="662" xmlns="http://www.w3.org/2000/svg"><g><path d="M-95,-130L-115,423L-50,16Z" fill="#fdffe1" stroke="#fdffe1" fill-opacity="1" stroke-opacity="1"/><path d="M-95,-130L-50,16L58,-77Z" fill="#fffff0" stroke="#fffff0" fill-opacity="1" stroke-opacity="1"/><path d="M-95,-130L58,-77L232,-116Z" fill="#fcfee5" stroke="#fcfee5" fill-opacity="1" stroke-opacity="1"/><path d="M-95,-130L232,-116L429,-128Z" fill="#f4fbd8" stroke="#f4fbd8" fill-opacity="1" stroke-opacity="1"/><path d="M-95,-130L429,-128L527,-131Z" fill="#e9f7d9" stroke="#e9f7d9" fill-opacity="1" stroke-opacity="1"/><path d="M58,-77L-50,16L116,22Z" fill="#fdfee7" stroke="#fdfee7" fill-opacity="1" stroke-opacity="1"/><path d="M58,-77L116,22L232,-116Z" fill="#f8fcdc" stroke="#f8fcdc" fill-opacity="1" stroke-opacity="1"/><path d="M232,-116L116,22L184,50Z" fill="#f6fbd8" stroke="#f6fbd8" fill-opacity="1" stroke-opacity="1"/><path d="M232,-116L184,50L361,61Z" fill="#ecf8d9" stroke="#ecf8d9" fill-opacity="1" stroke-opacity="1"/><path d="M232,-116L361,61L429,-128Z" fill="#e3f4da" stroke="#e3f4da" fill-opacity="1" stroke-opacity="1"/><path d="M429,-128L361,61L527,110Z" fill="#cfecd8" stroke="#cfecd8" fill-opacity="1" stroke-opacity="1"/><path d="M429,-128L527,110L527,-131Z" fill="#c3e8dd" stroke="#c3e8dd" fill-opacity="1" stroke-opacity="1"/><path d="M527,-131L527,110L628,95Z" fill="#b6e3d8" stroke="#b6e3d8" fill-opacity="1" stroke-opacity="1"/><path d="M527,-131L628,95L693,-24Z" fill="#acdfe0" stroke="#acdfe0" fill-opacity="1" stroke-opacity="1"/><path d="M527,-131L693,-24L853,-129Z" fill="#9fdae2" stroke="#9fdae2" fill-opacity="1" stroke-opacity="1"/><path d="M693,-24L628,95L800,37Z" fill="#9ed8d8" stroke="#9ed8d8" fill-opacity="1" stroke-opacity="1"/><path d="M693,-24L800,37L853,-129Z" fill="#96d0e1" stroke="#96d0e1" fill-opacity="1" stroke-opacity="1"/><path d="M853,-129L800,37L997,48Z" fill="#8fc4de" stroke="#8fc4de" fill-opacity="1" stroke-opacity="1"/><path d="M853,-129L997,48L1028,-36Z" fill="#90b8d8" stroke="#90b8d8" fill-opacity="1" stroke-opacity="1"/><path d="M853,-129L1028,-36L1161,-54Z" fill="#91b0d4" stroke="#91b0d4" fill-opacity="1" stroke-opacity="1"/><path d="M853,-129L1161,-54L1597,-87Z" fill="#8595c1" stroke="#8595c1" fill-opacity="1" stroke-opacity="1"/><path d="M1028,-36L997,48L1119,91Z" fill="#8fabc8" stroke="#8fabc8" fill-opacity="1" stroke-opacity="1"/><path d="M1028,-36L1119,91L1161,-54Z" fill="#8ca3cc" stroke="#8ca3cc" fill-opacity="1" stroke-opacity="1"/><path d="M1161,-54L1119,91L1227,-40Z" fill="#879ac5" stroke="#879ac5" fill-opacity="1" stroke-opacity="1"/><path d="M1161,-54L1227,-40L1597,-87Z" fill="#8082b4" stroke="#8082b4" fill-opacity="1" stroke-opacity="1"/><path d="M1227,-40L1119,91L1302,48Z" fill="#8493b7" stroke="#8493b7" fill-opacity="1" stroke-opacity="1"/><path d="M1227,-40L1302,48L1415,-29Z" fill="#8084b5" stroke="#8084b5" fill-opacity="1" stroke-opacity="1"/><path d="M1227,-40L1415,-29L1597,-87Z" fill="#8080ab" stroke="#8080ab" fill-opacity="1" stroke-opacity="1"/><path d="M1415,-29L1302,48L1395,54Z" fill="#8080a9" stroke="#8080a9" fill-opacity="1" stroke-opacity="1"/><path d="M1415,-29L1395,54L1580,106Z" fill="#80809a" stroke="#80809a" fill-opacity="1" stroke-opacity="1"/><path d="M1415,-29L1580,106L1597,-87Z" fill="#80809e" stroke="#80809e" fill-opacity="1" stroke-opacity="1"/><path d="M1597,-87L1580,106L1591,366Z" fill="#7b8083" stroke="#7b8083" fill-opacity="1" stroke-opacity="1"/><path d="M-50,16L-115,423L-32,218Z" fill="#dafce2" stroke="#dafce2" fill-opacity="1" stroke-opacity="1"/><path d="M-50,16L-32,218L19,216Z" fill="#f8ffda" stroke="#f8ffda" fill-opacity="1" stroke-opacity="1"/><path d="M-50,16L19,216L116,22Z" fill="#feffd3" stroke="#feffd3" fill-opacity="1" stroke-opacity="1"/><path d="M116,22L19,216L184,50Z" fill="#f8fdca" stroke="#f8fdca" fill-opacity="1" stroke-opacity="1"/><path d="M184,50L19,216L280,182Z" fill="#f0fcc5" stroke="#f0fcc5" fill-opacity="1" stroke-opacity="1"/><path d="M184,50L280,182L361,61Z" fill="#e9f7c4" stroke="#e9f7c4" fill-opacity="1" stroke-opacity="1"/><path d="M361,61L280,182L432,177Z" fill="#daf3c6" stroke="#daf3c6" fill-opacity="1" stroke-opacity="1"/><path d="M361,61L432,177L527,110Z" fill="#cbecc7" stroke="#cbecc7" fill-opacity="1" stroke-opacity="1"/><path d="M527,110L432,177L525,201Z" fill="#bae8c9" stroke="#bae8c9" fill-opacity="1" stroke-opacity="1"/><path d="M527,110L525,201L628,95Z" fill="#b1e3ca" stroke="#b1e3ca" fill-opacity="1" stroke-opacity="1"/><path d="M628,95L525,201L706,282Z" fill="#95dece" stroke="#95dece" fill-opacity="1" stroke-opacity="1"/><path d="M628,95L706,282L795,178Z" fill="#8ad7ce" stroke="#8ad7ce" fill-opacity="1" stroke-opacity="1"/><path d="M628,95L795,178L800,37Z" fill="#98d4cc" stroke="#98d4cc" fill-opacity="1" stroke-opacity="1"/><path d="M800,37L795,178L965,190Z" fill="#89c8cb" stroke="#89c8cb" fill-opacity="1" stroke-opacity="1"/><path d="M800,37L965,190L997,48Z" fill="#8ebec5" stroke="#8ebec5" fill-opacity="1" stroke-opacity="1"/><path d="M997,48L965,190L1071,215Z" fill="#89b1c0" stroke="#89b1c0" fill-opacity="1" stroke-opacity="1"/><path d="M997,48L1071,215L1119,91Z" fill="#8aa9bb" stroke="#8aa9bb" fill-opacity="1" stroke-opacity="1"/><path d="M1119,91L1071,215L1267,258Z" fill="#749bb3" stroke="#749bb3" fill-opacity="1" stroke-opacity="1"/><path d="M1119,91L1267,258L1302,48Z" fill="#7e91a9" stroke="#7e91a9" fill-opacity="1" stroke-opacity="1"/><path d="M1302,48L1267,258L1449,171Z" fill="#77819f" stroke="#77819f" fill-opacity="1" stroke-opacity="1"/><path d="M1302,48L1449,171L1395,54Z" fill="#7f8098" stroke="#7f8098" fill-opacity="1" stroke-opacity="1"/><path d="M1395,54L1449,171L1580,106Z" fill="#7d808f" stroke="#7d808f" fill-opacity="1" stroke-opacity="1"/><path d="M1580,106L1449,171L1558,263Z" fill="#6f7f8b" stroke="#6f7f8b" fill-opacity="1" stroke-opacity="1"/><path d="M1580,106L1558,263L1591,366Z" fill="#4d7b8a" stroke="#4d7b8a" fill-opacity="1" stroke-opacity="1"/><path d="M-32,218L-115,423L53,355Z" fill="#a6ece5" stroke="#a6ece5" fill-opacity="1" stroke-opacity="1"/><path d="M-32,218L53,355L19,216Z" fill="#c4f7dc" stroke="#c4f7dc" fill-opacity="1" stroke-opacity="1"/><path d="M19,216L53,355L247,351Z" fill="#abeed4" stroke="#abeed4" fill-opacity="1" stroke-opacity="1"/><path d="M19,216L247,351L280,182Z" fill="#c0f6c8" stroke="#c0f6c8" fill-opacity="1" stroke-opacity="1"/><path d="M280,182L247,351L318,334Z" fill="#a4ebcc" stroke="#a4ebcc" fill-opacity="1" stroke-opacity="1"/><path d="M280,182L318,334L432,177Z" fill="#b8f0c9" stroke="#b8f0c9" fill-opacity="1" stroke-opacity="1"/><path d="M432,177L318,334L525,201Z" fill="#a3e9cb" stroke="#a3e9cb" fill-opacity="1" stroke-opacity="1"/><path d="M525,201L318,334L546,417Z" fill="#77dad1" stroke="#77dad1" fill-opacity="1" stroke-opacity="1"/><path d="M525,201L546,417L628,357Z" fill="#5fd1d4" stroke="#5fd1d4" fill-opacity="1" stroke-opacity="1"/><path d="M525,201L628,357L706,282Z" fill="#6ad5d2" stroke="#6ad5d2" fill-opacity="1" stroke-opacity="1"/><path d="M706,282L628,357L833,376Z" fill="#41c1d7" stroke="#41c1d7" fill-opacity="1" stroke-opacity="1"/><path d="M706,282L833,376L795,178Z" fill="#55c6d3" stroke="#55c6d3" fill-opacity="1" stroke-opacity="1"/><path d="M795,178L833,376L965,190Z" fill="#5ac2cf" stroke="#5ac2cf" fill-opacity="1" stroke-opacity="1"/><path d="M965,190L833,376L986,426Z" fill="#36aad0" stroke="#36aad0" fill-opacity="1" stroke-opacity="1"/><path d="M965,190L986,426L1071,215Z" fill="#4fa7c7" stroke="#4fa7c7" fill-opacity="1" stroke-opacity="1"/><path d="M1071,215L986,426L1088,403Z" fill="#3294c6" stroke="#3294c6" fill-opacity="1" stroke-opacity="1"/><path d="M1071,215L1088,403L1267,258Z" fill="#4291ba" stroke="#4291ba" fill-opacity="1" stroke-opacity="1"/><path d="M1267,258L1088,403L1332,392Z" fill="#2678b3" stroke="#2678b3" fill-opacity="1" stroke-opacity="1"/><path d="M1267,258L1332,392L1466,333Z" fill="#286da6" stroke="#286da6" fill-opacity="1" stroke-opacity="1"/><path d="M1267,258L1466,333L1449,171Z" fill="#497a9d" stroke="#497a9d" fill-opacity="1" stroke-opacity="1"/><path d="M1449,171L1466,333L1558,263Z" fill="#487993" stroke="#487993" fill-opacity="1" stroke-opacity="1"/><path d="M1558,263L1466,333L1591,366Z" fill="#2b6e93" stroke="#2b6e93" fill-opacity="1" stroke-opacity="1"/><path d="M-115,423L-117,569L116,543Z" fill="#93b2d1" stroke="#93b2d1" fill-opacity="1" stroke-opacity="1"/><path d="M-115,423L116,543L53,355Z" fill="#91ccd9" stroke="#91ccd9" fill-opacity="1" stroke-opacity="1"/><path d="M53,355L116,543L247,351Z" fill="#8ad2cf" stroke="#8ad2cf" fill-opacity="1" stroke-opacity="1"/><path d="M247,351L116,543L244,576Z" fill="#87b5be" stroke="#87b5be" fill-opacity="1" stroke-opacity="1"/><path d="M247,351L244,576L392,551Z" fill="#7db0be" stroke="#7db0be" fill-opacity="1" stroke-opacity="1"/><path d="M247,351L392,551L318,334Z" fill="#78cdcd" stroke="#78cdcd" fill-opacity="1" stroke-opacity="1"/><path d="M318,334L392,551L546,417Z" fill="#65bdcb" stroke="#65bdcb" fill-opacity="1" stroke-opacity="1"/><path d="M546,417L392,551L471,549Z" fill="#5c9fbe" stroke="#5c9fbe" fill-opacity="1" stroke-opacity="1"/><path d="M546,417L471,549L719,516Z" fill="#489bc4" stroke="#489bc4" fill-opacity="1" stroke-opacity="1"/><path d="M546,417L719,516L628,357Z" fill="#3cafd0" stroke="#3cafd0" fill-opacity="1" stroke-opacity="1"/><path d="M628,357L719,516L833,376Z" fill="#2eacd4" stroke="#2eacd4" fill-opacity="1" stroke-opacity="1"/><path d="M833,376L719,516L838,538Z" fill="#288ec8" stroke="#288ec8" fill-opacity="1" stroke-opacity="1"/><path d="M833,376L838,538L986,426Z" fill="#228ecb" stroke="#228ecb" fill-opacity="1" stroke-opacity="1"/><path d="M986,426L838,538L1019,566Z" fill="#246eba" stroke="#246eba" fill-opacity="1" stroke-opacity="1"/><path d="M986,426L1019,566L1088,403Z" fill="#2472bd" stroke="#2472bd" fill-opacity="1" stroke-opacity="1"/><path d="M1088,403L1019,566L1140,509Z" fill="#2260b3" stroke="#2260b3" fill-opacity="1" stroke-opacity="1"/><path d="M1088,403L1140,509L1283,478Z" fill="#1b5eaf" stroke="#1b5eaf" fill-opacity="1" stroke-opacity="1"/><path d="M1088,403L1283,478L1332,392Z" fill="#1663af" stroke="#1663af" fill-opacity="1" stroke-opacity="1"/><path d="M1332,392L1283,478L1468,559Z" fill="#144098" stroke="#144098" fill-opacity="1" stroke-opacity="1"/><path d="M1332,392L1468,559L1522,513Z" fill="#143b8e" stroke="#143b8e" fill-opacity="1" stroke-opacity="1"/><path d="M1332,392L1522,513L1466,333Z" fill="#12579b" stroke="#12579b" fill-opacity="1" stroke-opacity="1"/><path d="M1466,333L1522,513L1591,366Z" fill="#145992" stroke="#145992" fill-opacity="1" stroke-opacity="1"/><path d="M1591,366L1522,513L1561,711Z" fill="#132c78" stroke="#132c78" fill-opacity="1" stroke-opacity="1"/><path d="M1591,366L1561,711L1552,866Z" fill="#100157" stroke="#100157" fill-opacity="1" stroke-opacity="1"/><path d="M-117,569L-82,798L-17,634Z" fill="#8f80ad" stroke="#8f80ad" fill-opacity="1" stroke-opacity="1"/><path d="M-117,569L-17,634L116,543Z" fill="#9199bb" stroke="#9199bb" fill-opacity="1" stroke-opacity="1"/><path d="M116,543L-17,634L58,692Z" fill="#8d89aa" stroke="#8d89aa" fill-opacity="1" stroke-opacity="1"/><path d="M116,543L58,692L171,653Z" fill="#8a85a1" stroke="#8a85a1" fill-opacity="1" stroke-opacity="1"/><path d="M116,543L171,653L244,576Z" fill="#8792a4" stroke="#8792a4" fill-opacity="1" stroke-opacity="1"/><path d="M244,576L171,653L399,699Z" fill="#7b7b98" stroke="#7b7b98" fill-opacity="1" stroke-opacity="1"/><path d="M244,576L399,699L392,551Z" fill="#7484a1" stroke="#7484a1" fill-opacity="1" stroke-opacity="1"/><path d="M392,551L399,699L486,654Z" fill="#62749c" stroke="#62749c" fill-opacity="1" stroke-opacity="1"/><path d="M392,551L486,654L471,549Z" fill="#5e84a9" stroke="#5e84a9" fill-opacity="1" stroke-opacity="1"/><path d="M471,549L486,654L642,684Z" fill="#4c6da0" stroke="#4c6da0" fill-opacity="1" stroke-opacity="1"/><path d="M471,549L642,684L719,516Z" fill="#3f79ae" stroke="#3f79ae" fill-opacity="1" stroke-opacity="1"/><path d="M719,516L642,684L862,633Z" fill="#2b63a8" stroke="#2b63a8" fill-opacity="1" stroke-opacity="1"/><path d="M719,516L862,633L838,538Z" fill="#266eb4" stroke="#266eb4" fill-opacity="1" stroke-opacity="1"/><path d="M838,538L862,633L1019,566Z" fill="#215bab" stroke="#215bab" fill-opacity="1" stroke-opacity="1"/><path d="M1019,566L862,633L988,709Z" fill="#203f99" stroke="#203f99" fill-opacity="1" stroke-opacity="1"/><path d="M1019,566L988,709L1078,631Z" fill="#213494" stroke="#213494" fill-opacity="1" stroke-opacity="1"/><path d="M1019,566L1078,631L1140,509Z" fill="#2045a0" stroke="#2045a0" fill-opacity="1" stroke-opacity="1"/><path d="M1140,509L1078,631L1284,698Z" fill="#19288b" stroke="#19288b" fill-opacity="1" stroke-opacity="1"/><path d="M1140,509L1284,698L1283,478Z" fill="#163191" stroke="#163191" fill-opacity="1" stroke-opacity="1"/><path d="M1283,478L1284,698L1431,661Z" fill="#11107a" stroke="#11107a" fill-opacity="1" stroke-opacity="1"/><path d="M1283,478L1431,661L1468,559Z" fill="#121f7f" stroke="#121f7f" fill-opacity="1" stroke-opacity="1"/><path d="M1468,559L1431,661L1561,711Z" fill="#100362" stroke="#100362" fill-opacity="1" stroke-opacity="1"/><path d="M1468,559L1561,711L1522,513Z" fill="#11156b" stroke="#11156b" fill-opacity="1" stroke-opacity="1"/><path d="M-17,634L-82,798L58,692Z" fill="#8d809b" stroke="#8d809b" fill-opacity="1" stroke-opacity="1"/><path d="M58,692L-82,798L38,875Z" fill="#8b8084" stroke="#8b8084" fill-opacity="1" stroke-opacity="1"/><path d="M58,692L38,875L199,775Z" fill="#867e7b" stroke="#867e7b" fill-opacity="1" stroke-opacity="1"/><path d="M58,692L199,775L171,653Z" fill="#867d8a" stroke="#867d8a" fill-opacity="1" stroke-opacity="1"/><path d="M171,653L199,775L399,699Z" fill="#7b7887" stroke="#7b7887" fill-opacity="1" stroke-opacity="1"/><path d="M399,699L199,775L347,837Z" fill="#727677" stroke="#727677" fill-opacity="1" stroke-opacity="1"/><path d="M399,699L347,837L580,780Z" fill="#5a6d79" stroke="#5a6d79" fill-opacity="1" stroke-opacity="1"/><path d="M399,699L580,780L486,654Z" fill="#52698a" stroke="#52698a" fill-opacity="1" stroke-opacity="1"/><path d="M486,654L580,780L642,684Z" fill="#43638d" stroke="#43638d" fill-opacity="1" stroke-opacity="1"/><path d="M642,684L580,780L618,849Z" fill="#39607d" stroke="#39607d" fill-opacity="1" stroke-opacity="1"/><path d="M642,684L618,849L882,868Z" fill="#285877" stroke="#285877" fill-opacity="1" stroke-opacity="1"/><path d="M642,684L882,868L862,633Z" fill="#224f89" stroke="#224f89" fill-opacity="1" stroke-opacity="1"/><path d="M862,633L882,868L955,785Z" fill="#1b427c" stroke="#1b427c" fill-opacity="1" stroke-opacity="1"/><path d="M862,633L955,785L988,709Z" fill="#1d3d88" stroke="#1d3d88" fill-opacity="1" stroke-opacity="1"/><path d="M988,709L955,785L1180,869Z" fill="#1b2d6b" stroke="#1b2d6b" fill-opacity="1" stroke-opacity="1"/><path d="M988,709L1180,869L1078,631Z" fill="#1b2774" stroke="#1b2774" fill-opacity="1" stroke-opacity="1"/><path d="M1078,631L1180,869L1284,698Z" fill="#14186a" stroke="#14186a" fill-opacity="1" stroke-opacity="1"/><path d="M1284,698L1180,869L1327,766Z" fill="#0d0c56" stroke="#0d0c56" fill-opacity="1" stroke-opacity="1"/><path d="M1284,698L1327,766L1431,661Z" fill="#0e005f" stroke="#0e005f" fill-opacity="1" stroke-opacity="1"/><path d="M1431,661L1327,766L1391,777Z" fill="#0d0054" stroke="#0d0054" fill-opacity="1" stroke-opacity="1"/><path d="M1431,661L1391,777L1561,711Z" fill="#0e0051" stroke="#0e0051" fill-opacity="1" stroke-opacity="1"/><path d="M1561,711L1391,777L1552,866Z" fill="#0c003b" stroke="#0c003b" fill-opacity="1" stroke-opacity="1"/><path d="M38,875L1180,869L882,868Z" fill="#275965" stroke="#275965" fill-opacity="1" stroke-opacity="1"/><path d="M38,875L882,868L618,849Z" fill="#496762" stroke="#496762" fill-opacity="1" stroke-opacity="1"/><path d="M38,875L618,849L347,837Z" fill="#6e7561" stroke="#6e7561" fill-opacity="1" stroke-opacity="1"/><path d="M38,875L347,837L199,775Z" fill="#7e7b66" stroke="#7e7b66" fill-opacity="1" stroke-opacity="1"/><path d="M347,837L618,849L580,780Z" fill="#49676d" stroke="#49676d" fill-opacity="1" stroke-opacity="1"/><path d="M882,868L1180,869L955,785Z" fill="#1a3260" stroke="#1a3260" fill-opacity="1" stroke-opacity="1"/><path d="M1180,869L1552,866L1391,777Z" fill="#0a003b" stroke="#0a003b" fill-opacity="1" stroke-opacity="1"/><path d="M1180,869L1391,777L1327,766Z" fill="#0b074b" stroke="#0b074b" fill-opacity="1" stroke-opacity="1"/></g></svg>